# xmcd
#
# Track frame offsets:
#	150
#	21840
#	36097
#	48927
#	66717
#	82470
#	97170
#	111732
#	129055
#	146372
#	166405
#	182285
#	195980
#	210482
#
# Disc length: 2974 seconds
#
# Revision: 2
# Processed by: cddbd v1.4PL0 Copyright (c) Steve Scherf et al.
# Submitted via: audiograbber 1.80
#
DISCID=c70b9c0e
DTITLE=Jonny Hill - singt die schönsten Country und Truckersongs
DYEAR=1900
DGENRE=
TTITLE0=Ruf Teddybär eins-vier
TTITLE1=Vielleicht bist du auch so allein
TTITLE2=Mein bester Freund
TTITLE3=Träume die jeder hat
TTITLE4=Pack doch die Koffer wieder aus
TTITLE5=Wie heisst deine Mama
TTITLE6=Ein Glas noch und noch eins
TTITLE7=Rosen für Mama
TTITLE8=Mal bist du traurig, mal bist du froh
TTITLE9=Dein erster Brief
TTITLE10=Und wieder zeigt dir wieder einmal einen Vogel
TTITLE11=Carolyn
TTITLE12=Ich muss dich vergessen
TTITLE13=Kann Liebe alles verzeihn
EXTD=
EXTT0=
EXTT1=
EXTT2=
EXTT3=
EXTT4=
EXTT5=
EXTT6=
EXTT7=
EXTT8=
EXTT9=
EXTT10=
EXTT11=
EXTT12=
EXTT13=
PLAYORDER=
